<svg width="40" height="40" viewBox="0 0 100 100" fill="none" xmlns="http://www.w3.org/2000/svg">
  <defs>
    <linearGradient id="redGradient" x1="50" y1="0" x2="50" y2="100" gradientUnits="userSpaceOnUse">
      <stop stop-color="#E31837" />
      <stop offset="1" stop-color="#B20F26" />
    </linearGradient>
    <linearGradient id="navyGradient" x1="0" y1="0" x2="100" y2="100" gradientUnits="userSpaceOnUse">
      <stop stop-color="#0B1953" />
      <stop offset="1" stop-color="#06103D" />
    </linearGradient>
  </defs>
  <path d="M50 0C50 0 10 30 10 60C10 82.0914 27.9086 100 50 100C72.0914 100 90 82.0914 90 60C90 30 50 0 50 0Z" fill="url(#navyGradient)" />
  <path d="M50 20C50 20 25 45 25 65C25 78.8071 36.1929 90 50 90C63.8071 90 75 78.8071 75 65C75 45 50 20 50 20Z" fill="url(#redGradient)" />
  <ellipse cx="60" cy="45" rx="5" ry="15" transform="rotate(30 60 45)" fill="white" fill-opacity="0.3" />
</svg>
